<?xml version="1.0"?>
<svg xmlns="http://www.w3.org/2000/svg" viewBox="0 0 512 512" width="512" height="512"><g id="outline"><path d="M344,168H332a152.71937,152.71937,0,0,0-56.96777,10.97119l-6.5752,2.62988a19.816,19.816,0,0,0,0,36.79786l6.5752,2.62988A152.71937,152.71937,0,0,0,332,232,100.113,100.113,0,0,1,432,332a52.059,52.059,0,0,1-52,52h-1.7998a49.64945,49.64945,0,0,1-35.47754-14.75635A50.75622,50.75622,0,0,1,328,333.21191V330.2002a66.27681,66.27681,0,0,0-66.20215-66.20166L136,263.99951A55.99976,55.99976,0,1,1,136,152h21.333l18.6123,13.96191A49.8652,49.8652,0,0,0,206.10156,176h.30469a48.9292,48.9292,0,0,0,21.77539-5.1416l41.09473-20.55127A33.64956,33.64956,0,0,0,287.04053,128H312a56.06322,56.06322,0,0,0,56-56H352a40.03283,40.03283,0,0,1-20.87671,35.12317A39.74944,39.74944,0,0,0,336,88V72H320V88a24.02718,24.02718,0,0,1-24,24h-8.96387a33.68255,33.68255,0,0,0-17.77734-22.31494L228.47754,69.29443A50.15034,50.15034,0,0,0,175.96,74.02979L157.333,88H136a120,120,0,0,0,0,240H256a8.00917,8.00917,0,0,1,8,8A112.12706,112.12706,0,0,0,376,448h8A112.12706,112.12706,0,0,0,496,336V320C496,236.187,427.81348,168,344,168ZM480,320v14.5564l-29.47607-4.91285,28.72558-23.938A136.89777,136.89777,0,0,1,480,320Zm-33.30151,25.22681,32.19458,5.36572a95.18063,95.18063,0,0,1-7.00611,24.01l-28.79712-17.27832A67.39529,67.39529,0,0,0,446.69849,345.22681Zm-.37647-32.90869a114.97687,114.97687,0,0,0-5.68506-20.98291l29.05786-23.24634a134.84211,134.84211,0,0,1,6.377,19.43774Zm-12.56763-35.96631a116.31284,116.31284,0,0,0-7.24755-11.54468l26.30346-26.30347a136.46482,136.46482,0,0,1,9.699,14.84424Zm-22.7539-74.66614-26.76221,26.76208a115.242,115.242,0,0,0-18.064-7.3081l27.67724-27.67737A135.51378,135.51378,0,0,1,411.00049,201.68567Zm-136.60205,1.85779a3.81678,3.81678,0,0,1,0-7.08692l6.57519-2.62988A136.79284,136.79284,0,0,1,332,184h.686l-29.04493,29.04492a137.38054,137.38054,0,0,1-22.66748-6.87158Zm49.18017,12.19189,31.29981-31.2998a135.29016,135.29016,0,0,1,21.82348,3.54858l-29.07251,29.07251A116.4996,116.4996,0,0,0,332,216C329.18164,216,326.37476,215.90527,323.57861,215.73535Zm74.80616,21.19385L424.707,210.60693a137.13547,137.13547,0,0,1,17.72876,15.64331L416.29224,252.3938A116.93021,116.93021,0,0,0,398.38477,236.9292ZM411.585,392.19165,428.7998,420.8833A95.26486,95.26486,0,0,1,400,430.6593v-33.665A67.57149,67.57149,0,0,0,411.585,392.19165Zm-112.988.52539,23.66675-23.66662a66.7017,66.7017,0,0,0,9.10645,11.46716q1.20044,1.20887,2.45239,2.346l-23.28516,23.28515A96.81232,96.81232,0,0,1,298.59692,392.717Zm16.511-39.13892L290.02,378.666a95.29523,95.29523,0,0,1-6.92358-18.44849L312,331.314v1.89795A67.96348,67.96348,0,0,0,315.10791,353.57812Zm31.96484,38.66309a65.06571,65.06571,0,0,0,10.43409,4.45081l-12.12061,30.30224A95.69035,95.69035,0,0,1,323.188,416.126Zm-38.46923-80.15857-28.492,28.49182C280.04,339.05811,280,337.53369,280,336a23.88839,23.88839,0,0,0-5.46143-15.22449L298.898,296.41614A50.295,50.295,0,0,1,308.60352,312.08264Zm-89.28833-32.08386,25.37231-.00012L212.686,312H187.314ZM164.686,312H139.314l32.00074-32.00073L196.687,279.999Zm-15.99952-32.00061-30.47265,30.4729A103.09747,103.09747,0,0,1,98.364,304.95l25.91236-25.91235A72.8736,72.8736,0,0,0,136,279.99951Zm-41.84912-6.15076L83.15015,297.53589a104.51747,104.51747,0,0,1-14.77832-10.59375l22.69336-22.69336A71.51314,71.51314,0,0,0,106.8374,273.84863ZM76.37354,167.6875a71.81769,71.81769,0,0,0-8.45142,16.92065L43.60669,160.29272a104.28463,104.28463,0,0,1,9.86841-15.50378ZM60.686,200H32.30469a103.302,103.302,0,0,1,4.65136-23.73Zm3.7666,16A71.72122,71.72122,0,0,0,67.239,229.436L38.37646,243.86743A103.24156,103.24156,0,0,1,32.30469,216Zm9.23584,28.1001a71.84739,71.84739,0,0,0,6.06274,8.83471L57.05786,275.62817A104.46331,104.46331,0,0,1,45.06372,258.4126Zm13.12011-88.60547L64.17212,132.85815a104.7369,104.7369,0,0,1,14.06982-11.30224l23.26368,23.26367A72.35935,72.35935,0,0,0,86.80859,155.49463ZM117.61133,138.389l.0459-.04578L92.74609,113.43213a103.17009,103.17009,0,0,1,18.84131-6.53088L140.686,136H136A71.84,71.84,0,0,0,117.61133,138.389ZM160,104a7.9984,7.9984,0,0,0,4.7998-1.6001l20.75977-15.57031A34.151,34.151,0,0,1,221.32129,83.605l40.78125,20.39063a17.88923,17.88923,0,0,1,.01758,32.001l-41.09571,20.55176A32.84748,32.84748,0,0,1,206.40625,160h-.30469a33.98238,33.98238,0,0,1-20.55273-6.83594l-20.29175-15.22094-33.83667-33.83667C132.93945,104.04028,134.46509,104,136,104Zm75.314,208,31.72681-31.72681a49.81591,49.81591,0,0,1,19.24561,6.12647L260.2937,312.39233A24.02633,24.02633,0,0,0,256,312ZM376,432a96.31934,96.31934,0,0,1-14.91943-1.16113l12.40918-31.02271c1.56128.10926,3.12963.18384,4.71045.18384H380c1.34375,0,2.67529-.05,4-.1272V432Zm66.27173-19.76392L424.79,383.1001a68.53466,68.53466,0,0,0,10.60376-11.73426l28.82983,17.298A96.78426,96.78426,0,0,1,442.27173,412.23608Z"/><rect x="207.99994" y="91.05573" width="16.00011" height="17.88854" transform="translate(29.95914 248.47491) rotate(-63.43495)"/><rect x="207.05573" y="131.99994" width="17.88854" height="16.00011" transform="translate(-39.80774 111.39229) rotate(-26.56818)"/></g></svg>
